<?xml version="1.0" standalone="no"?>
<!DOCTYPE svg PUBLIC "-//W3C//DTD SVG 20010904//EN"
 "http://www.w3.org/TR/2001/REC-SVG-20010904/DTD/svg10.dtd">
<svg version="1.0" xmlns="http://www.w3.org/2000/svg"
 width="2000.000000pt" height="2000.000000pt" viewBox="0 0 2000.000000 2000.000000"
 preserveAspectRatio="xMidYMid meet">

<g transform="translate(0.000000,2000.000000) scale(0.100000,-0.100000)"
fill="#000000" stroke="none">
<path d="M4315 17918 c-6 -17 -1615 -5989 -1615 -5994 0 -2 240 -4 533 -4
l533 0 179 755 179 755 872 0 872 0 31 -132 c18 -73 98 -412 179 -753 l147
-620 538 -3 537 -2 -5 23 c-4 13 -358 1364 -788 3003 l-782 2979 -703 3 c-557
2 -704 0 -707 -10z m705 -703 c0 -55 47 -362 84 -547 25 -123 160 -710 300
-1304 141 -595 256 -1087 256 -1093 0 -8 -179 -11 -665 -11 -455 0 -665 3
-665 10 0 6 124 532 275 1169 269 1135 314 1344 351 1644 17 142 19 147 41
147 14 0 23 -6 23 -15z"/>
<path d="M12827 17923 c-4 -3 -7 -219 -7 -480 l0 -473 828 -2 827 -3 3 -2523
2 -2522 523 2 522 3 3 2523 2 2522 825 0 825 0 -2 478 -3 477 -2171 3 c-1194
1 -2174 -1 -2177 -5z"/>
<path d="M2827 7923 c-4 -3 -7 -219 -7 -480 l0 -473 828 -2 827 -3 3 -2523 2
-2522 523 2 522 3 3 2523 2 2522 825 0 825 0 -2 478 -3 477 -2171 3 c-1194 1
-2174 -1 -2177 -5z"/>
<path d="M14315 7918 c-6 -17 -1615 -5989 -1615 -5994 0 -2 240 -4 533 -4
l533 0 179 755 179 755 872 0 872 0 31 -132 c18 -73 98 -412 179 -753 l147
-620 538 -3 537 -2 -5 23 c-4 13 -358 1364 -788 3003 l-782 2979 -703 3 c-557
2 -704 0 -707 -10z m705 -703 c0 -55 47 -362 84 -547 25 -123 160 -710 300
-1304 141 -595 256 -1087 256 -1093 0 -8 -179 -11 -665 -11 -455 0 -665 3
-665 10 0 6 124 532 275 1169 269 1135 314 1344 351 1644 17 142 19 147 41
147 14 0 23 -6 23 -15z"/>
</g>
</svg>
