<svg version="1.1" id="Layer_1" xmlns="http://www.w3.org/2000/svg" xmlns:xlink="http://www.w3.org/1999/xlink" x="0px" y="0px"
	 width="100%" viewBox="0 0 1024 1024" enable-background="new 0 0 1024 1024" xml:space="preserve">
<path fill="#000000" opacity="1.000000" stroke="none" 
	d="
M222.350723,188.843811 
	C223.344193,213.947571 224.333130,238.570480 225.328644,263.193115 
	C225.388168,264.665192 225.041473,266.432281 226.616440,267.248199 
	C228.470001,268.208435 229.714935,266.599640 230.985077,265.625610 
	C248.002228,252.575409 266.119202,241.431396 286.454681,234.316864 
	C310.922913,225.756439 335.783722,223.582748 361.012878,230.786423 
	C394.290497,240.288193 417.316711,268.942535 420.463837,303.416626 
	C422.779144,328.779022 417.393829,351.789703 401.520294,371.833099 
	C388.606140,388.139740 371.021545,397.880768 351.882172,405.048950 
	C328.447327,413.825958 304.007935,417.472748 279.182983,419.407684 
	C250.055481,421.677979 220.914124,420.815582 191.796173,420.015442 
	C159.692795,419.133301 127.610710,417.425781 95.696350,413.473816 
	C84.144638,412.043396 84.367157,412.170044 85.881744,400.941284 
	C87.724602,387.278778 89.223335,373.566956 90.671074,359.855347 
	C91.425659,352.708618 92.125145,352.176880 99.345726,353.052399 
	C114.542068,354.895050 129.777985,356.325073 145.095367,356.800751 
	C148.282303,356.899750 150.426758,355.970551 152.138855,353.236847 
	C154.345673,349.713226 156.574097,346.102478 159.384277,343.078552 
	C165.058365,336.972900 166.226471,329.958862 165.701370,321.932648 
	C164.723236,306.981750 164.286972,291.991852 163.811264,277.012329 
	C162.362915,231.405167 161.025955,185.794479 159.593033,140.186829 
	C159.237534,128.872086 158.716644,117.562027 158.197784,106.253212 
	C158.058243,103.211967 158.947754,101.618706 162.362228,101.636757 
	C179.856766,101.729286 197.352264,101.721909 214.846909,101.639420 
	C218.023056,101.624435 219.245880,102.810555 219.354675,106.014076 
	C220.286911,133.465912 221.334534,160.913803 222.350723,188.843811 
M297.597534,293.155090 
	C289.208344,296.556244 281.603851,301.336731 274.280365,306.574829 
	C256.801514,319.076508 242.322388,334.697510 228.493393,350.964569 
	C226.517548,353.288788 223.870834,355.264709 223.144577,358.582031 
	C223.750488,358.944794 224.144547,359.348358 224.588379,359.413696 
	C225.734421,359.582275 226.901810,359.659393 228.061768,359.671814 
	C253.375061,359.942566 278.670044,359.559875 303.730377,355.539581 
	C318.552856,353.161682 333.241058,349.963379 346.027863,341.474640 
	C352.687622,337.053375 358.262695,331.382935 359.575165,323.093628 
	C361.946289,308.118011 352.434631,293.580780 337.786560,289.250366 
	C324.160248,285.222076 311.127350,287.946930 297.597534,293.155090 
z"/>
<path fill="#000000" opacity="1.000000" stroke="none" 
	d="
M663.739319,328.874634 
	C673.734802,303.741791 689.543396,283.228394 709.654968,265.908508 
	C707.242859,262.707184 704.270386,261.420166 701.723877,259.629150 
	C660.583130,230.694763 657.934998,177.423264 675.773560,146.422089 
	C689.470764,122.618011 711.188965,109.522614 737.171265,102.756485 
	C763.178162,95.983971 788.974182,98.480194 814.688171,104.671188 
	C818.184509,105.512978 819.122620,107.061554 818.484253,110.654953 
	C815.606079,126.858406 812.944580,143.101608 810.364685,159.355835 
	C809.790161,162.975662 808.181274,163.524811 804.862610,162.797653 
	C789.821655,159.502014 774.623169,157.703201 759.297729,160.375000 
	C747.298157,162.467010 736.489746,166.885300 730.331848,178.464508 
	C724.179321,190.033630 725.491638,202.393738 734.058472,212.385956 
	C741.497498,221.062729 751.062744,226.684784 761.511230,231.002609 
	C763.653503,231.887894 765.434937,231.260971 767.249634,230.454498 
	C790.661560,220.049911 815.217773,213.576004 840.326721,208.899460 
	C844.780212,208.069992 846.704163,208.870911 847.797791,213.769348 
	C851.309387,229.497040 855.370544,245.106857 859.490906,260.690399 
	C860.530090,264.620605 859.605591,265.871460 855.650208,266.621307 
	C828.742981,271.722015 802.422119,278.796082 777.876953,291.333740 
	C758.143555,301.413513 740.983093,314.624023 728.554199,333.274750 
	C716.484863,351.385956 711.536194,371.202332 716.322388,392.672913 
	C720.952148,413.441772 735.218994,426.161163 753.834290,434.588074 
	C772.536072,443.054138 792.258850,445.472076 812.700317,445.080780 
	C843.527649,444.490631 873.144592,438.495392 901.814270,427.461395 
	C905.390808,426.084930 906.426819,427.315277 907.383484,430.492218 
	C912.036621,445.945221 916.718140,461.393951 921.749390,476.726135 
	C923.153259,481.004242 922.249390,482.953491 918.158569,484.620361 
	C897.390869,493.082611 875.793945,498.442871 853.771912,502.250549 
	C835.344482,505.436768 816.759949,506.979370 798.072021,506.175476 
	C765.558167,504.776764 734.276611,498.514374 706.173523,481.010712 
	C675.505737,461.909637 657.901550,434.658417 654.485168,398.341827 
	C652.245483,374.532806 655.214417,351.567596 663.739319,328.874634 
z"/>
<path fill="#000000" opacity="1.000000" stroke="none" 
	d="
M203.340652,686.330811 
	C227.837250,663.594116 256.676483,659.524048 287.900543,665.075317 
	C292.811737,665.948486 297.691071,666.999146 302.592926,667.926575 
	C305.852020,668.543274 307.241150,669.790710 306.515717,673.674988 
	C303.556213,689.521179 300.938660,705.433655 298.404999,721.355103 
	C297.823242,725.010925 296.165466,725.618347 292.927002,724.926514 
	C287.729492,723.816040 282.487152,722.880859 277.231689,722.082458 
	C261.139191,719.637573 248.189819,725.537231 243.181549,737.479126 
	C237.247208,751.629089 241.705383,767.759277 254.263443,777.182556 
	C261.056641,782.280029 267.769653,785.039673 276.733490,780.947510 
	C289.735901,775.011719 303.459015,770.673767 316.717865,765.269470 
	C321.043488,763.506409 323.152100,763.966858 324.932129,768.514282 
	C330.940033,783.862366 337.158844,799.132629 343.609619,814.299683 
	C345.490204,818.721191 343.207855,819.802185 339.949738,821.088196 
	C304.938812,834.908142 269.649139,847.946594 233.698303,859.137939 
	C217.169952,864.283203 200.555725,869.126160 183.819611,873.565735 
	C180.466934,874.455078 178.938599,873.756042 177.866882,870.581909 
	C172.381744,854.336975 166.819153,838.117981 161.198410,821.919434 
	C160.140228,818.869812 160.839996,817.444946 164.093384,816.553223 
	C176.772049,813.078186 189.382782,809.354736 202.009109,805.690247 
	C203.879242,805.147522 205.832138,804.677673 207.852173,802.642822 
	C188.171097,784.336365 177.044922,762.557373 179.906631,735.163635 
	C181.885208,716.223572 189.623123,700.034668 203.340652,686.330811 
z"/>
<path fill="#000000" opacity="1.000000" stroke="none" 
	d="
M798.270935,682.001831 
	C799.566284,726.102173 800.908630,769.702087 802.124146,813.305542 
	C802.959351,843.265015 803.595398,873.230042 804.374756,903.191162 
	C804.543518,909.679688 804.876953,916.166077 805.265381,922.645630 
	C805.473389,926.114624 804.014587,927.350830 800.590881,927.330444 
	C783.433594,927.228271 766.274597,927.182129 749.118225,927.339661 
	C744.933044,927.378113 744.136780,925.277466 743.985779,921.808472 
	C743.457031,909.662964 743.523254,897.506653 743.089539,885.354675 
	C741.949341,853.408691 741.473938,821.439575 740.604553,789.483154 
	C739.327576,742.549072 738.055908,695.614136 736.501587,648.688843 
	C736.176331,638.870483 735.701965,629.057495 735.661804,619.231445 
	C735.655151,617.605225 735.230713,615.907776 736.305603,614.071045 
	C736.914185,613.968262 737.701172,613.720642 738.488464,613.719299 
	C756.145996,613.690125 773.803650,613.730042 791.460815,613.642395 
	C794.687866,613.626343 796.276367,614.480591 796.366028,618.109253 
	C796.888428,639.243164 797.609741,660.372131 798.270935,682.001831 
z"/>
</svg>