<?xml version="1.0" standalone="no"?> <!DOCTYPE svg PUBLIC "-//W3C//DTD SVG 20010904//EN" "http://www.w3.org/TR/2001/REC-SVG-20010904/DTD/svg10.dtd"> <svg version="1.0" xmlns="http://www.w3.org/2000/svg" width="600.000000pt" height="600.000000pt" viewBox="0 0 600.000000 600.000000" preserveAspectRatio="xMidYMid meet"> <g transform="translate(0.000000,600.000000) scale(0.100000,-0.100000)" fill="currentColor" stroke="none"> <path d="M1296 5372 c-2 -4 -99 -361 -216 -792 -116 -432 -223 -828 -237 -880 -14 -52 -28 -100 -30 -107 -4 -10 30 -13 156 -13 l161 0 7 28 c4 15 27 115 53 222 l46 195 262 3 262 2 7 -27 c3 -16 27 -116 52 -223 l46 -195 164 -3 c129 -2 162 0 158 10 -6 17 -467 1774 -467 1782 0 9 -418 7 -424 -2z m222 -289 c9 -70 155 -712 178 -785 5 -17 -9 -18 -195 -18 -111 0 -201 2 -201 4 0 3 38 165 85 362 46 196 90 394 96 440 7 46 15 84 18 84 4 0 12 -39 19 -87z"/> <path d="M3850 5235 l0 -145 245 0 245 0 0 -755 0 -755 160 0 160 0 0 755 0 755 245 0 245 0 0 145 0 145 -650 0 -650 0 0 -145z"/> <path d="M850 2235 l0 -145 245 0 245 0 0 -755 0 -755 160 0 160 0 0 755 0 755 245 0 245 0 0 145 0 145 -650 0 -650 0 0 -145z"/> <path d="M4296 2372 c-2 -4 -111 -401 -240 -882 -130 -481 -239 -883 -242 -892 -5 -17 7 -18 155 -18 l161 0 7 27 c4 16 27 116 53 223 l46 195 262 3 262 2 5 -22 c3 -13 27 -113 53 -223 l48 -200 163 -3 c129 -2 162 0 158 10 -6 17 -467 1774 -467 1782 0 9 -418 7 -424 -2z m221 -284 c9 -66 157 -721 179 -790 5 -17 -9 -18 -195 -18 -111 0 -201 2 -201 4 0 3 36 157 81 343 44 186 88 384 97 441 9 56 19 102 22 102 3 0 11 -37 17 -82z"/> </g> </svg>
